<mxfile host="app.diagrams.net" modified="2023-04-13T10:04:11.143Z" agent="Mozilla/5.0 (Windows NT 10.0; Win64; x64) AppleWebKit/537.36 (KHTML, like Gecko) Chrome/112.0.0.0 Safari/537.36" etag="STuBw_4ZpkiDJAoI2NKq" version="21.1.4" type="device">
  <diagram name="Page-1" id="PXFgxMrB4smAQw8mENTh">
    <mxGraphModel dx="1687" dy="2036" grid="1" gridSize="10" guides="1" tooltips="1" connect="1" arrows="1" fold="1" page="1" pageScale="1" pageWidth="850" pageHeight="1100" math="0" shadow="0">
      <root>
        <mxCell id="0" />
        <mxCell id="1" parent="0" />
        <mxCell id="UihMwHzBmDLKPvfbKo_X-8" value="" style="endArrow=classic;html=1;rounded=0;" parent="1" edge="1">
          <mxGeometry width="50" height="50" relative="1" as="geometry">
            <mxPoint x="372" y="20" as="sourcePoint" />
            <mxPoint x="372" y="60" as="targetPoint" />
            <Array as="points">
              <mxPoint x="372" y="50" />
            </Array>
          </mxGeometry>
        </mxCell>
        <mxCell id="UihMwHzBmDLKPvfbKo_X-18" value="" style="endArrow=classic;html=1;rounded=0;" parent="1" edge="1">
          <mxGeometry width="50" height="50" relative="1" as="geometry">
            <mxPoint x="372" y="120" as="sourcePoint" />
            <mxPoint x="372" y="160" as="targetPoint" />
            <Array as="points">
              <mxPoint x="372" y="150" />
            </Array>
          </mxGeometry>
        </mxCell>
        <mxCell id="UihMwHzBmDLKPvfbKo_X-24" value="START" style="rounded=1;whiteSpace=wrap;html=1;" parent="1" vertex="1">
          <mxGeometry x="305" y="-40" width="135" height="60" as="geometry" />
        </mxCell>
        <mxCell id="UihMwHzBmDLKPvfbKo_X-35" value="" style="endArrow=classic;html=1;rounded=0;" parent="1" edge="1">
          <mxGeometry width="50" height="50" relative="1" as="geometry">
            <mxPoint x="372" y="220" as="sourcePoint" />
            <mxPoint x="372" y="260" as="targetPoint" />
            <Array as="points">
              <mxPoint x="372" y="250" />
            </Array>
          </mxGeometry>
        </mxCell>
        <mxCell id="UihMwHzBmDLKPvfbKo_X-37" value="MICROCONTROLLER&amp;nbsp;&lt;br style=&quot;border-color: var(--border-color); font-size: 12px;&quot;&gt;(Read Temp from&lt;br style=&quot;border-color: var(--border-color);&quot;&gt;SCD30)" style="shape=parallelogram;perimeter=parallelogramPerimeter;whiteSpace=wrap;html=1;fixedSize=1;fontFamily=Helvetica;fontSize=11;fontColor=default;" parent="1" vertex="1">
          <mxGeometry x="300" y="260" width="150" height="60" as="geometry" />
        </mxCell>
        <mxCell id="UihMwHzBmDLKPvfbKo_X-38" value="WIFI MODULE" style="rounded=0;whiteSpace=wrap;html=1;fontFamily=Helvetica;fontSize=11;fontColor=default;" parent="1" vertex="1">
          <mxGeometry x="510" y="260" width="120" height="60" as="geometry" />
        </mxCell>
        <mxCell id="UihMwHzBmDLKPvfbKo_X-39" value="" style="endArrow=classic;html=1;rounded=0;" parent="1" edge="1">
          <mxGeometry width="50" height="50" relative="1" as="geometry">
            <mxPoint x="440" y="289.5" as="sourcePoint" />
            <mxPoint x="510" y="290" as="targetPoint" />
            <Array as="points">
              <mxPoint x="440" y="289.5" />
            </Array>
          </mxGeometry>
        </mxCell>
        <mxCell id="UihMwHzBmDLKPvfbKo_X-40" value="NEXTION DISPLAY&lt;br&gt;AND READ SETUP VALUE" style="rounded=0;whiteSpace=wrap;html=1;fontFamily=Helvetica;fontSize=11;fontColor=default;" parent="1" vertex="1">
          <mxGeometry x="490" y="720" width="120" height="60" as="geometry" />
        </mxCell>
        <mxCell id="UihMwHzBmDLKPvfbKo_X-43" value="" style="edgeStyle=elbowEdgeStyle;elbow=horizontal;endArrow=classic;html=1;curved=0;rounded=0;endSize=8;startSize=8;labelBackgroundColor=default;strokeColor=default;fontFamily=Helvetica;fontSize=11;fontColor=default;shape=connector;exitX=0.5;exitY=1;exitDx=0;exitDy=0;" parent="1" source="UihMwHzBmDLKPvfbKo_X-38" edge="1">
          <mxGeometry width="50" height="50" relative="1" as="geometry">
            <mxPoint x="560" y="420" as="sourcePoint" />
            <mxPoint x="630" y="450" as="targetPoint" />
            <Array as="points">
              <mxPoint x="580" y="450" />
              <mxPoint x="560" y="320" />
              <mxPoint x="560" y="530" />
              <mxPoint x="610" y="230" />
            </Array>
          </mxGeometry>
        </mxCell>
        <mxCell id="UihMwHzBmDLKPvfbKo_X-46" value="READ SETPOINT TEMP/HUM/CO2" style="shape=parallelogram;perimeter=parallelogramPerimeter;whiteSpace=wrap;html=1;fixedSize=1;fontFamily=Helvetica;fontSize=11;fontColor=default;" parent="1" vertex="1">
          <mxGeometry x="290" y="390" width="150" height="60" as="geometry" />
        </mxCell>
        <mxCell id="UihMwHzBmDLKPvfbKo_X-49" value="" style="endArrow=classic;html=1;rounded=0;labelBackgroundColor=default;strokeColor=default;fontFamily=Helvetica;fontSize=11;fontColor=default;startSize=8;endSize=8;shape=connector;curved=0;" parent="1" edge="1">
          <mxGeometry width="50" height="50" relative="1" as="geometry">
            <mxPoint x="372" y="320" as="sourcePoint" />
            <mxPoint x="372" y="390" as="targetPoint" />
          </mxGeometry>
        </mxCell>
        <mxCell id="UihMwHzBmDLKPvfbKo_X-50" value="COMPARE TEMP/HUM/CO2 TO SETPOINT" style="shape=parallelogram;perimeter=parallelogramPerimeter;whiteSpace=wrap;html=1;fixedSize=1;fontFamily=Helvetica;fontSize=11;fontColor=default;" parent="1" vertex="1">
          <mxGeometry x="280" y="520" width="160" height="60" as="geometry" />
        </mxCell>
        <mxCell id="UihMwHzBmDLKPvfbKo_X-51" value="" style="endArrow=classic;html=1;rounded=0;labelBackgroundColor=default;strokeColor=default;fontFamily=Helvetica;fontSize=11;fontColor=default;startSize=8;endSize=8;shape=connector;curved=0;" parent="1" edge="1">
          <mxGeometry width="50" height="50" relative="1" as="geometry">
            <mxPoint x="370" y="450" as="sourcePoint" />
            <mxPoint x="370" y="520" as="targetPoint" />
          </mxGeometry>
        </mxCell>
        <mxCell id="UihMwHzBmDLKPvfbKo_X-52" value="SEND DATA&amp;nbsp; AND STATUS&amp;nbsp;&lt;br&gt;OF THE APPLICATIONS" style="rounded=0;whiteSpace=wrap;html=1;fontFamily=Helvetica;fontSize=11;fontColor=default;" parent="1" vertex="1">
          <mxGeometry x="290" y="720" width="140" height="60" as="geometry" />
        </mxCell>
        <mxCell id="UihMwHzBmDLKPvfbKo_X-53" value="" style="endArrow=classic;html=1;rounded=0;labelBackgroundColor=default;strokeColor=default;fontFamily=Helvetica;fontSize=11;fontColor=default;startSize=8;endSize=8;shape=connector;curved=0;" parent="1" edge="1">
          <mxGeometry width="50" height="50" relative="1" as="geometry">
            <mxPoint x="372" y="580" as="sourcePoint" />
            <mxPoint x="372" y="620" as="targetPoint" />
          </mxGeometry>
        </mxCell>
        <mxCell id="UihMwHzBmDLKPvfbKo_X-55" value="" style="endArrow=classic;html=1;rounded=0;" parent="1" edge="1">
          <mxGeometry width="50" height="50" relative="1" as="geometry">
            <mxPoint x="430" y="749.5" as="sourcePoint" />
            <mxPoint x="490" y="750" as="targetPoint" />
            <Array as="points">
              <mxPoint x="430" y="749.5" />
            </Array>
          </mxGeometry>
        </mxCell>
        <mxCell id="UihMwHzBmDLKPvfbKo_X-57" value="" style="edgeStyle=segmentEdgeStyle;endArrow=classic;html=1;curved=0;rounded=0;endSize=8;startSize=8;exitX=0;exitY=0.5;exitDx=0;exitDy=0;" parent="1" source="UihMwHzBmDLKPvfbKo_X-52" edge="1">
          <mxGeometry width="50" height="50" relative="1" as="geometry">
            <mxPoint x="210" y="760" as="sourcePoint" />
            <mxPoint x="330" y="200" as="targetPoint" />
            <Array as="points">
              <mxPoint x="210" y="670" />
              <mxPoint x="210" y="200" />
              <mxPoint x="305" y="200" />
            </Array>
          </mxGeometry>
        </mxCell>
        <mxCell id="UihMwHzBmDLKPvfbKo_X-58" value="&lt;font style=&quot;font-size: 12px;&quot;&gt;&amp;nbsp;LOAD SETUP VALUE&lt;br&gt;FROM STORGAE DEVICE&lt;br&gt;&lt;/font&gt;" style="ellipse;whiteSpace=wrap;html=1;fontFamily=Helvetica;fontSize=11;fontColor=default;" parent="1" vertex="1">
          <mxGeometry x="290" y="60" width="160" height="60" as="geometry" />
        </mxCell>
        <mxCell id="UihMwHzBmDLKPvfbKo_X-59" value="MAIN LOOP" style="rhombus;whiteSpace=wrap;html=1;fontFamily=Helvetica;fontSize=11;fontColor=default;" parent="1" vertex="1">
          <mxGeometry x="332.5" y="160" width="80" height="80" as="geometry" />
        </mxCell>
        <mxCell id="UihMwHzBmDLKPvfbKo_X-60" value="CLOUD" style="rounded=0;whiteSpace=wrap;html=1;fontFamily=Helvetica;fontSize=11;fontColor=default;" parent="1" vertex="1">
          <mxGeometry x="630" y="420" width="120" height="60" as="geometry" />
        </mxCell>
        <mxCell id="UihMwHzBmDLKPvfbKo_X-61" value="ACTION PERFORM BASED ON CONDITIONS" style="rounded=0;whiteSpace=wrap;html=1;fontFamily=Helvetica;fontSize=11;fontColor=default;" parent="1" vertex="1">
          <mxGeometry x="310" y="620" width="120" height="60" as="geometry" />
        </mxCell>
        <mxCell id="UihMwHzBmDLKPvfbKo_X-63" value="" style="endArrow=classic;html=1;rounded=0;labelBackgroundColor=default;strokeColor=default;fontFamily=Helvetica;fontSize=11;fontColor=default;startSize=8;endSize=8;shape=connector;curved=0;" parent="1" edge="1">
          <mxGeometry width="50" height="50" relative="1" as="geometry">
            <mxPoint x="374.5" y="680" as="sourcePoint" />
            <mxPoint x="374.5" y="720" as="targetPoint" />
          </mxGeometry>
        </mxCell>
        <mxCell id="UihMwHzBmDLKPvfbKo_X-66" value="CONTROLLING" style="rounded=0;whiteSpace=wrap;html=1;fontFamily=Helvetica;fontSize=11;fontColor=default;" parent="1" vertex="1">
          <mxGeometry x="320" y="-660" width="120" height="60" as="geometry" />
        </mxCell>
        <mxCell id="UihMwHzBmDLKPvfbKo_X-67" value="SET TEMP&amp;gt;TEMP" style="rhombus;whiteSpace=wrap;html=1;fontFamily=Helvetica;fontSize=11;fontColor=default;" parent="1" vertex="1">
          <mxGeometry x="340" y="-560" width="80" height="80" as="geometry" />
        </mxCell>
        <mxCell id="UihMwHzBmDLKPvfbKo_X-68" value="" style="endArrow=classic;html=1;rounded=0;" parent="1" edge="1">
          <mxGeometry width="50" height="50" relative="1" as="geometry">
            <mxPoint x="379.5" y="-600" as="sourcePoint" />
            <mxPoint x="379.5" y="-560" as="targetPoint" />
            <Array as="points">
              <mxPoint x="379.5" y="-570" />
            </Array>
          </mxGeometry>
        </mxCell>
        <mxCell id="UihMwHzBmDLKPvfbKo_X-69" value="" style="rounded=0;whiteSpace=wrap;html=1;fontFamily=Helvetica;fontSize=11;fontColor=default;" parent="1" vertex="1">
          <mxGeometry x="330" y="-420" width="100" height="40" as="geometry" />
        </mxCell>
        <mxCell id="UihMwHzBmDLKPvfbKo_X-71" value="" style="rounded=0;whiteSpace=wrap;html=1;fontFamily=Helvetica;fontSize=11;fontColor=default;" parent="1" vertex="1">
          <mxGeometry x="480" y="-480" width="100" height="40" as="geometry" />
        </mxCell>
        <mxCell id="UihMwHzBmDLKPvfbKo_X-72" value="" style="endArrow=classic;html=1;rounded=0;entryX=0.5;entryY=0;entryDx=0;entryDy=0;" parent="1" target="UihMwHzBmDLKPvfbKo_X-69" edge="1">
          <mxGeometry width="50" height="50" relative="1" as="geometry">
            <mxPoint x="379.5" y="-480" as="sourcePoint" />
            <mxPoint x="379.5" y="-440" as="targetPoint" />
            <Array as="points">
              <mxPoint x="379.5" y="-450" />
            </Array>
          </mxGeometry>
        </mxCell>
        <mxCell id="UihMwHzBmDLKPvfbKo_X-74" value="" style="edgeStyle=segmentEdgeStyle;endArrow=classic;html=1;curved=0;rounded=0;endSize=8;startSize=8;labelBackgroundColor=default;strokeColor=default;fontFamily=Helvetica;fontSize=11;fontColor=default;shape=connector;entryX=0.25;entryY=0;entryDx=0;entryDy=0;exitX=1;exitY=0.5;exitDx=0;exitDy=0;" parent="1" source="UihMwHzBmDLKPvfbKo_X-67" edge="1">
          <mxGeometry width="50" height="50" relative="1" as="geometry">
            <mxPoint x="450" y="-540" as="sourcePoint" />
            <mxPoint x="535" y="-478" as="targetPoint" />
            <Array as="points">
              <mxPoint x="535" y="-520" />
            </Array>
          </mxGeometry>
        </mxCell>
        <mxCell id="UihMwHzBmDLKPvfbKo_X-76" value="TRUE" style="text;html=1;align=center;verticalAlign=middle;resizable=0;points=[];autosize=1;strokeColor=none;fillColor=none;fontSize=11;fontFamily=Helvetica;fontColor=default;" parent="1" vertex="1">
          <mxGeometry x="435" y="-545" width="50" height="30" as="geometry" />
        </mxCell>
        <mxCell id="UihMwHzBmDLKPvfbKo_X-77" value="FALSE" style="text;html=1;align=center;verticalAlign=middle;resizable=0;points=[];autosize=1;strokeColor=none;fillColor=none;fontSize=11;fontFamily=Helvetica;fontColor=default;" parent="1" vertex="1">
          <mxGeometry x="370" y="-460" width="60" height="30" as="geometry" />
        </mxCell>
        <mxCell id="w_mMfdwOYIyAtFsYdlub-1" value="" style="edgeStyle=elbowEdgeStyle;elbow=horizontal;endArrow=classic;html=1;curved=0;rounded=0;endSize=8;startSize=8;exitX=0;exitY=0;exitDx=0;exitDy=0;" parent="1" source="UihMwHzBmDLKPvfbKo_X-40" edge="1">
          <mxGeometry width="50" height="50" relative="1" as="geometry">
            <mxPoint x="460" y="520" as="sourcePoint" />
            <mxPoint x="435" y="309" as="targetPoint" />
            <Array as="points">
              <mxPoint x="500" y="380" />
              <mxPoint x="500" y="320" />
            </Array>
          </mxGeometry>
        </mxCell>
      </root>
    </mxGraphModel>
  </diagram>
</mxfile>
